# xmcd CD database file
#
# Track frame offsets:
#	182
#	18857
#	39485
#	55140
#	77095
#	97370
#	115635
#	134455
#	153842
#	170650
#	190802
#	210185
#	226812
#	244650
#	271812
#	291562
#	313387
#
# Disc length: 4471 seconds
#
# Revision: 5
# Processed by: cddbd v1.5.2PL0 Copyright (c) Steve Scherf et al.
# Submitted via: CDex 1.79
#
DISCID=e8117511
DTITLE=Michael Martin Murphey - Cowboy Songs III  - Rhymes of the Renegades-
DYEAR=1993
DGENRE=Country
TTITLE0=Big Iron (featuring Marty Robbins)
TTITLE1=Rhymes Of The Renegades
TTITLE2=Riders In The Sky
TTITLE3=El Paso
TTITLE4=Sonora's Death Row
TTITLE5=Ballad Of Billy The Kid
TTITLE6=Bily Gray (featuring Debbie Nims)
TTITLE7=Rose And Thorns (featuring Ryan Murphey)
TTITLE8=Strawberry Roan (featuring Chris LeDoux)
TTITLE9=The Wild West Is Gonna Get Wilder
TTITLE10=The Ballad Of Jesse James
TTITLE11=Frank James' Farewell (featuring Hal Ketchum)
TTITLE12=Cole Younger
TTITLE13=Belle Star (featuring Bill Miller)
TTITLE14=Queen Of Heartaches
TTITLE15=Sam Bass
TTITLE16=Birmingham Jail
EXTD=YEAR: 1993
EXTT0=
EXTT1=
EXTT2=
EXTT3=
EXTT4=
EXTT5=
EXTT6=
EXTT7=
EXTT8=
EXTT9=
EXTT10=
EXTT11=
EXTT12=
EXTT13=
EXTT14=
EXTT15=
EXTT16=
PLAYORDER=
